<?xml version="1.0" standalone="no"?>
<!DOCTYPE svg PUBLIC "-//W3C//DTD SVG 20010904//EN"
 "http://www.w3.org/TR/2001/REC-SVG-20010904/DTD/svg10.dtd">
<svg version="1.0" xmlns="http://www.w3.org/2000/svg"
 width="150.000000pt" height="150.000000pt" viewBox="0 0 150.000000 150.000000"
 preserveAspectRatio="xMidYMid meet">
<metadata>
Created by potrace 1.11, written by Peter Selinger 2001-2013
</metadata>
<g transform="translate(0.000000,150.000000) scale(0.100000,-0.100000)"
fill="#000000" stroke="none">
<path d="M713 1342 c-19 -12 -43 -78 -43 -117 0 -32 -2 -35 -18 -26 -17 9 -70
16 -99 12 -21 -2 -15 -49 10 -72 12 -11 44 -33 70 -49 29 -16 44 -31 38 -35
-20 -12 -71 -109 -71 -136 0 -69 103 -86 200 -33 30 16 64 43 75 59 14 20 30
31 49 32 74 5 107 111 51 165 -21 21 -22 24 -9 50 8 15 24 33 35 39 20 10 21
9 15 -15 -5 -21 -3 -26 13 -26 23 0 45 25 38 44 -3 8 -20 17 -37 21 -39 8 -72
-12 -90 -55 -28 -67 -66 -4 -40 66 l12 29 12 -23 c10 -19 14 -21 30 -9 28 20
17 52 -18 52 -39 0 -67 -39 -70 -97 -1 -35 -9 -54 -35 -84 -19 -23 -30 -31
-26 -19 25 74 16 161 -21 205 -26 30 -48 37 -71 22z m62 -51 c39 -77 13 -215
-36 -185 -36 22 -53 129 -30 187 14 37 46 36 66 -2z m-137 -116 c27 -11 44
-27 55 -51 10 -19 17 -37 17 -40 0 -7 -82 37 -117 64 -18 13 -33 28 -33 33 0
14 35 11 78 -6z m295 -40 c18 8 47 -30 47 -61 0 -35 -37 -74 -71 -74 -69 0
-95 80 -42 128 18 17 28 20 38 12 7 -6 19 -8 28 -5z m-118 -85 c4 -17 16 -39
27 -50 14 -12 18 -25 13 -39 -10 -31 -22 -25 -35 17 -7 20 -21 52 -31 70 -18
31 -18 32 1 32 12 0 21 -10 25 -30z m-64 -89 c19 -53 19 -56 3 -68 -10 -7 -20
-13 -23 -13 -3 0 -18 31 -32 69 -24 64 -25 71 -10 86 15 14 17 14 28 -2 7 -9
22 -42 34 -72z m-88 -38 c17 -43 16 -47 -12 -38 -21 6 -30 29 -23 58 7 27 19
20 35 -20z"/>
<path d="M880 1085 c0 -9 11 -13 30 -13 37 1 35 20 -3 24 -18 2 -27 -2 -27
-11z"/>
<path d="M936 1045 c-14 -11 -24 -12 -38 -4 -11 6 -22 8 -25 6 -2 -3 5 -11 17
-17 18 -9 28 -9 46 1 13 7 24 16 24 21 0 10 -1 10 -24 -7z"/>
<path d="M893 910 c-19 -8 -23 -17 -24 -52 -1 -107 -10 -334 -14 -345 -5 -14
69 -38 89 -30 7 3 14 28 15 59 7 149 8 155 34 145 11 -4 13 -26 9 -106 l-5
-101 46 0 c25 0 48 4 51 9 13 21 18 221 7 249 -20 47 -79 63 -117 31 -13 -10
-14 -2 -10 59 3 41 1 74 -5 77 -18 12 -54 14 -76 5z"/>
<path d="M482 891 c-8 -5 -12 -22 -10 -42 3 -33 5 -34 46 -35 48 -1 50 0 57
50 l6 36 -43 0 c-24 0 -49 -4 -56 -9z"/>
<path d="M1253 883 c-44 -13 -53 -19 -53 -39 0 -27 28 -46 50 -34 8 4 34 11
56 15 33 5 43 11 46 29 10 50 -9 56 -99 29z"/>
<path d="M287 808 c-17 -13 -25 -40 -26 -88 -1 -21 -4 -19 -22 18 -26 52 -58
70 -94 54 -14 -7 -28 -18 -31 -25 -3 -8 14 -44 37 -81 l41 -66 -20 -80 c-11
-43 -17 -82 -14 -85 3 -3 20 -5 38 -5 45 0 73 27 77 72 1 21 5 38 8 38 3 0 14
-18 24 -40 16 -35 22 -40 52 -40 37 0 73 15 73 31 0 5 -20 39 -43 74 l-44 65
18 72 c13 52 15 76 7 85 -13 17 -59 17 -81 1z"/>
<path d="M616 787 c-16 -12 -15 -16 9 -70 31 -71 31 -71 -1 -142 -26 -60 -23
-75 16 -75 41 0 60 13 66 46 8 41 19 44 29 7 12 -50 42 -65 89 -47 21 8 20 14
-9 78 -14 30 -25 59 -25 64 0 5 11 35 24 68 l24 59 -20 11 c-36 20 -72 2 -82
-39 -11 -42 -26 -49 -26 -12 0 29 -32 65 -58 65 -10 0 -26 -6 -36 -13z"/>
<path d="M503 783 c-37 -5 -34 14 -37 -193 -1 -93 -1 -94 24 -100 39 -10 70 0
75 24 6 29 12 249 7 264 -4 12 -9 12 -69 5z"/>
<path d="M1188 758 c-16 -12 -22 -29 -19 -54 1 -7 22 -11 57 -11 55 1 73 -10
74 -40 0 -9 -8 -8 -27 3 -34 17 -54 18 -88 2 -50 -22 -70 -96 -40 -142 27 -41
94 -56 135 -31 5 3 10 0 10 -8 0 -18 21 -27 61 -27 38 0 43 12 55 164 6 73 4
84 -15 108 -12 15 -39 32 -59 38 -51 14 -125 13 -144 -2z m92 -183 c0 -7 -7
-18 -15 -25 -13 -10 -21 -10 -43 -1 l-27 13 22 18 c24 19 63 16 63 -5z"/>
<path d="M568 465 c-2 -2 -46 -5 -98 -9 -95 -6 -106 -7 -210 -27 -94 -18 -102
-20 -139 -35 -47 -20 -81 -52 -74 -71 10 -26 115 -10 229 35 120 48 187 59
330 56 211 -4 295 -24 464 -111 124 -63 179 -78 202 -55 9 9 5 20 -18 43 l-29
31 35 -7 c110 -24 246 18 226 70 -7 20 -38 31 -111 39 -33 4 -73 8 -90 10 -31
4 -113 12 -245 22 -74 6 -467 13 -472 9z m880 -73 c18 -12 6 -37 -24 -51 -36
-16 -54 -13 -21 5 30 16 33 24 15 42 -9 9 -9 12 3 12 7 0 20 -4 27 -8z"/>
<path d="M1290 233 c0 -4 5 -25 11 -46 8 -31 14 -38 31 -35 12 2 26 11 32 20
8 14 6 22 -9 37 -22 21 -65 37 -65 24z m60 -43 c0 -5 -2 -10 -4 -10 -3 0 -8 5
-11 10 -3 6 -1 10 4 10 6 0 11 -4 11 -10z"/>
</g>
</svg>
